<svg id="SvgjsSvg1102" width="100%" height="100%" xmlns="http://www.w3.org/2000/svg" version="1.1"
  xlink="http://www.w3.org/1999/xlink" xmlns:svgjs="http://svgjs.com/svgjs" preserveAspectRatio="xMidYMid meet"
  viewBox="0 -1.2469476473597751e-7 164.52261352539062 147" overflow="visible">
  <defs id="SvgjsDefs1103"></defs>
  <g id="SvgjsG1104" transform="scale(0.34478103035182295)" opacity="1">
    <g id="SvgjsG1105" class="88xzTMmLt-"
      transform="translate(67.81327412917544, -5.806118834430168) scale(3.415363924454662)" light-content="false"
      non-strokable="false" fill="#FFF">
      <path
        d="M47.398 1.7H52.5v5.1h-5.102zm0 91.499H52.5v5.102h-5.102zM13.898 78.5H19v5.102h-5.102zm65.602 0h5.102v5.102H79.5zM13.898 15.699H19v5.102h-5.102zm65.602 0h5.102v5.102H79.5zM1.102 47h5.101v5.102H1.102zm92.699 0h5.102v5.102H93.8zM10.398 24.301c-3.8 5.8-6.2 12.199-7.102 19.102l-.097.598h3l.101-.5c1-6.7 3.5-13.102 7.301-18.7l.602-.8h-3.5zM6.102 55.602l-.102-.5H3.102l.101.602c.899 7.101 3.2 13.602 7 19.602l.2.199h3.5l-.602-.801C9.5 69.001 7 62.399 6.1 55.602zm87.597-12l.102.5h3l-.102-.602a48.02 48.02 0 0 0-7.102-19.102l-.199-.199h-3.5L86.5 25a45.48 45.48 0 0 1 7.199 18.602zm.199 11.5l-.102.5c-.898 6.8-3.398 13.5-7.199 19.102l-.597.898h3.5l.199-.199c3.8-5.898 6.199-12.5 7-19.602l.101-.601zM74.102 13l.102.102h5l-1.301-1C71.602 7.3 64 4.199 56.102 3.199l-.602-.101v3l.5.101c6.5.903 12.602 3.102 18.102 6.801zm-52.204-.898l-1.3 1h5l.1-.102C31.3 9.301 37.399 7.102 44 6.2l.5-.102v-3l-.602.102c-8 1-15.598 4.101-22 8.902zm52.704 74.699c-5.602 3.7-12 6.2-18.699 7.102l-.5.101v3l.602-.101c8.101-1.102 15.8-4.2 22.3-9.2l1.301-1zm-49.301 0l-.2-.102h-4.898l1.301 1c6.5 5 14.301 8.102 22.398 9.2l.602.101v-3L44 93.801c-6.7-.902-13.2-3.402-18.7-7zm28-24.5c0-7.2 5.898-13.102 13.102-13.102 3.898 0 7.398 1.7 9.8 4.398L76.2 36.398c0-1.699-1.3-3-3-3H61.399v-1.8c0-3.102-2.5-5.5-5.5-5.5h-12c-3.102 0-5.5 2.5-5.5 5.5v1.8H26.8c-1.7 0-3 1.301-3 3v32.898c0 1.7 1.3 3 3 3h31.102A13.158 13.158 0 0 1 53.3 62.3zM41.699 31.602c0-1.2 1-2.102 2.102-2.102h12c1.199 0 2.101 1 2.101 2.102v1.8L41.7 33.4z">
      </path>
      <path
        d="M65.801 53.602c-4.398 0-8 3.602-8 8s3.602 8 8 8c1.398 0 2.7-.398 3.898-1l.2-.102 3.199 3.2c.3.3.699.5 1.199.5s.898-.2 1.2-.5c.3-.301.5-.7.5-1.2 0-.398-.2-.898-.5-1.199L72.394 66.2l.101-.2c.899-1.3 1.301-2.8 1.301-4.398.004-4.402-3.598-8-7.996-8zm0 13.098c-2.8 0-5.102-2.3-5.102-5.102 0-2.8 2.301-5.101 5.102-5.101s5.102 2.3 5.102 5.101c-.004 2.903-2.301 5.102-5.102 5.102z">
      </path>
    </g>
    <g id="SvgjsG1106" class="text" transform="translate(239.19000244140625, 425.2175642942249) scale(1)"
      light-content="false" fill="#FFF">
      <path
        d="M-219.04 1.14C-214.13 1.12 -210.14 0.35 -207.05 -1.17C-199.83 -4.73 -196.21 -12.39 -196.21 -24.17L-196.21 -46.79L-214.88 -46.79L-214.88 -18.96C-214.88 -17.26 -215.3 -15.86 -216.16 -14.77C-216.55 -14.26 -217 -13.87 -217.51 -13.59C-218.53 -13.07 -219.52 -13.05 -220.5 -13.54C-222.12 -14.32 -222.93 -16.06 -222.93 -18.78L-222.93 -23.29L-239.19 -21.06L-239.19 -16.61C-239.19 -10.63 -237.24 -6.12 -233.33 -3.08C-231.5 -1.63 -229.3 -0.57 -226.74 0.12C-224.18 0.8 -221.61 1.14 -219.04 1.14Z M-152.57 -26.04C-151.48 -25.5 -150.93 -24.46 -150.93 -22.94C-150.93 -21.42 -151.47 -19.69 -152.54 -17.77C-153.62 -15.84 -154.87 -14.21 -156.29 -12.86C-156.98 -12.22 -157.66 -11.7 -158.34 -11.32C-159.03 -10.94 -159.68 -10.75 -160.31 -10.75C-160.93 -10.75 -161.46 -10.85 -161.89 -11.04C-163.1 -11.59 -163.71 -12.66 -163.71 -14.25C-163.71 -15.84 -163.19 -17.59 -162.15 -19.48C-161.12 -21.38 -159.84 -22.99 -158.31 -24.32C-157.59 -24.94 -156.86 -25.43 -156.12 -25.8C-155.38 -26.16 -154.7 -26.34 -154.08 -26.34C-153.47 -26.34 -152.96 -26.24 -152.57 -26.04ZM-158.26 1.08C-154.54 1.06 -151.06 0.25 -147.8 -1.35C-144.54 -2.95 -141.93 -5.21 -139.97 -8.14C-138.02 -11.07 -137.05 -14.44 -137.07 -18.25C-137.09 -24.19 -139.13 -28.93 -143.17 -32.48C-147.21 -36.02 -152.2 -37.79 -158.14 -37.79C-164.08 -37.79 -169.07 -35.98 -173.11 -32.36C-177.15 -28.74 -179.17 -24.08 -179.17 -18.38C-179.17 -12.69 -177.02 -7.97 -172.7 -4.22C-168.66 -0.68 -163.84 1.08 -158.26 1.08Z M-91.44 0.09C-84.45 -1.77 -79.49 -5.47 -76.56 -11.02C-75.05 -13.87 -74.3 -16.61 -74.3 -19.25C-74.3 -24.19 -75.72 -28.37 -78.55 -31.79C-81.38 -35.21 -85.35 -36.91 -90.45 -36.91C-91.19 -36.91 -92.05 -36.83 -93.02 -36.65C-96.62 -36.01 -99.67 -34.49 -102.19 -32.11L-102.19 -49.31L-119.24 -49.31L-119.24 -0.47C-112.43 0.61 -106.74 1.14 -102.19 1.14C-97.64 1.14 -94.06 0.79 -91.44 0.09ZM-93.76 -24.73C-93.23 -24.73 -92.78 -24.61 -92.41 -24.37C-91.37 -23.71 -90.86 -22.49 -90.86 -20.71C-90.86 -18.21 -91.79 -15.78 -93.65 -13.4C-95.52 -11.03 -97.43 -9.84 -99.38 -9.84L-102.28 -9.84L-102.28 -20.89C-99.16 -23.45 -96.31 -24.73 -93.76 -24.73Z M-56.47 -46.79L-56.47 0L-38.25 0L-38.25 -16.44L-22.81 -16.44L-22.81 -29.21L-38.25 -29.21L-38.25 -33.54L-22.81 -33.54L-22.81 -46.79Z M9.64 -51.49C8.25 -52.69 6.13 -53.29 3.27 -53.29C0.41 -53.29 -1.93 -52.44 -3.75 -50.74C-4.57 -50 -5.19 -49.16 -5.6 -48.22C-6.01 -47.29 -6.21 -46.39 -6.21 -45.53C-6.21 -44.67 -6.06 -43.89 -5.77 -43.18C-4.76 -40.68 -2.18 -39.43 1.96 -39.43C4.91 -39.43 7.27 -40.21 9.04 -41.78C10.81 -43.34 11.69 -45.05 11.7 -46.9C11.71 -48.76 11.03 -50.29 9.64 -51.49ZM11.19 0L11.19 -36.42L-5.77 -36.42L-5.77 0Z M50.03 -26.51C53.46 -26.51 55.18 -23.54 55.18 -17.58L55.18 0L72.7 0L72.7 -24.84C72.7 -28.79 71.41 -31.93 68.82 -34.28C66.23 -36.62 62.73 -37.79 58.32 -37.79C55.92 -37.79 53.33 -37.16 50.57 -35.89C47.81 -34.62 45.64 -32.9 44.08 -30.73L39.89 -36.42L30.28 -36.42L30.28 0L47.68 0L47.68 -22.73C47.68 -25.25 48.46 -26.51 50.03 -26.51Z M112.54 -37.73C103.67 -37.73 97.22 -34.55 93.2 -28.18C91.17 -24.98 90.15 -20.9 90.15 -15.94C90.15 -10.98 91.9 -6.91 95.38 -3.74C98.87 -0.56 102.95 1.03 107.61 1.03C113.43 1.03 118.13 -1.34 121.71 -6.06L125.89 0L136.76 0L136.76 -49.31L119.71 -49.31L119.71 -36.59C117.25 -37.35 114.86 -37.73 112.54 -37.73ZM119.71 -25.37L119.71 -14.94C116.59 -12.38 113.76 -11.1 111.22 -11.1C110.69 -11.12 110.24 -11.25 109.87 -11.48C108.83 -12.15 108.32 -13.33 108.32 -15.01C108.32 -16.7 108.79 -18.41 109.72 -20.13C110.15 -20.93 110.68 -21.68 111.3 -22.38C112.48 -23.83 113.8 -24.87 115.29 -25.52C116.01 -25.83 116.76 -25.99 117.54 -25.99C118.33 -25.99 119.05 -25.78 119.71 -25.37Z M179.67 -25.99L179.61 -25.31L179.06 -20.83L172.64 -19.39C172.86 -20.62 173.02 -21.78 173.12 -22.87C173.23 -23.95 173.42 -24.9 173.7 -25.72C174.24 -27.44 175.43 -28.39 177.27 -28.56C178.87 -28.56 179.67 -27.71 179.67 -25.99ZM175.72 -12.66C181.24 -12.66 185.64 -13.98 188.9 -16.64C192.16 -19.3 193.8 -22.33 193.81 -25.75C193.82 -29.17 192.46 -32.04 189.74 -34.37C187.01 -36.69 182.99 -37.85 177.68 -37.85C173.58 -37.85 169.76 -37.04 166.22 -35.42C162.69 -33.8 159.89 -31.43 157.82 -28.3C155.59 -24.88 154.48 -21.03 154.48 -16.73C154.48 -11.03 156.45 -6.56 160.39 -3.34C164.03 -0.39 168.37 1.08 173.43 1.08C182.24 1.08 188.82 -0.8 193.18 -4.57L191.36 -13.68C189.37 -11.96 187.12 -10.72 184.61 -9.96C182.1 -9.2 180.01 -8.82 178.35 -8.82C177.71 -8.82 177.04 -8.85 176.36 -8.91C173.88 -9.12 172.64 -10.39 172.64 -12.71C173.11 -12.68 173.6 -12.66 174.11 -12.66Z M237.99 -22.68L237.99 -37.73C236.33 -37.56 234.76 -37.02 233.29 -36.12C231.81 -35.22 230.58 -34.02 229.58 -32.52L229.58 -36.42L211.95 -36.42L211.95 0L229.58 0L229.58 -16.99C229.6 -18.16 230.56 -19.4 232.45 -20.71C234.35 -22.02 236.19 -22.68 237.99 -22.68Z">
      </path>
    </g>
  </g>
</svg>